<mxfile host="app.diagrams.net" modified="2023-02-15T02:03:10.480Z" agent="5.0 (Macintosh; Intel Mac OS X 10_15_7) AppleWebKit/537.36 (KHTML, like Gecko) Chrome/107.0.0.0 Safari/537.36" etag="VYOcRQiPZTATApHjlRg4" version="20.8.20" type="github">
  <diagram name="페이지-1" id="TWKrAEmz95SrKinKn7LC">
    <mxGraphModel dx="1242" dy="710" grid="1" gridSize="10" guides="1" tooltips="1" connect="1" arrows="1" fold="1" page="1" pageScale="1" pageWidth="1169" pageHeight="827" math="0" shadow="0">
      <root>
        <mxCell id="0" />
        <mxCell id="1" parent="0" />
        <mxCell id="9UDR6D25uus_SUwkZko5-1" value="VPC" style="points=[[0,0],[0.25,0],[0.5,0],[0.75,0],[1,0],[1,0.25],[1,0.5],[1,0.75],[1,1],[0.75,1],[0.5,1],[0.25,1],[0,1],[0,0.75],[0,0.5],[0,0.25]];outlineConnect=0;gradientColor=none;html=1;whiteSpace=wrap;fontSize=12;fontStyle=0;container=1;pointerEvents=0;collapsible=0;recursiveResize=0;shape=mxgraph.aws4.group;grIcon=mxgraph.aws4.group_vpc;strokeColor=#248814;fillColor=none;verticalAlign=top;align=left;spacingLeft=30;fontColor=#AAB7B8;dashed=0;" parent="1" vertex="1">
          <mxGeometry x="240" y="40" width="680" height="760" as="geometry" />
        </mxCell>
        <mxCell id="9UDR6D25uus_SUwkZko5-5" value="Public subnet" style="points=[[0,0],[0.25,0],[0.5,0],[0.75,0],[1,0],[1,0.25],[1,0.5],[1,0.75],[1,1],[0.75,1],[0.5,1],[0.25,1],[0,1],[0,0.75],[0,0.5],[0,0.25]];outlineConnect=0;gradientColor=none;html=1;whiteSpace=wrap;fontSize=12;fontStyle=0;container=1;pointerEvents=0;collapsible=0;recursiveResize=0;shape=mxgraph.aws4.group;grIcon=mxgraph.aws4.group_security_group;grStroke=0;strokeColor=#248814;fillColor=#E9F3E6;verticalAlign=top;align=left;spacingLeft=30;fontColor=#248814;dashed=0;" parent="9UDR6D25uus_SUwkZko5-1" vertex="1">
          <mxGeometry x="40" y="80" width="280" height="160" as="geometry" />
        </mxCell>
        <mxCell id="9UDR6D25uus_SUwkZko5-16" value="" style="sketch=0;points=[[0,0,0],[0.25,0,0],[0.5,0,0],[0.75,0,0],[1,0,0],[0,1,0],[0.25,1,0],[0.5,1,0],[0.75,1,0],[1,1,0],[0,0.25,0],[0,0.5,0],[0,0.75,0],[1,0.25,0],[1,0.5,0],[1,0.75,0]];outlineConnect=0;fontColor=#232F3E;gradientColor=#F78E04;gradientDirection=north;fillColor=#D05C17;strokeColor=#ffffff;dashed=0;verticalLabelPosition=bottom;verticalAlign=top;align=center;html=1;fontSize=12;fontStyle=0;aspect=fixed;shape=mxgraph.aws4.resourceIcon;resIcon=mxgraph.aws4.ec2;" parent="9UDR6D25uus_SUwkZko5-5" vertex="1">
          <mxGeometry x="110" y="56" width="38" height="38" as="geometry" />
        </mxCell>
        <mxCell id="9UDR6D25uus_SUwkZko5-6" value="Private subnet" style="points=[[0,0],[0.25,0],[0.5,0],[0.75,0],[1,0],[1,0.25],[1,0.5],[1,0.75],[1,1],[0.75,1],[0.5,1],[0.25,1],[0,1],[0,0.75],[0,0.5],[0,0.25]];outlineConnect=0;gradientColor=none;html=1;whiteSpace=wrap;fontSize=12;fontStyle=0;container=1;pointerEvents=0;collapsible=0;recursiveResize=0;shape=mxgraph.aws4.group;grIcon=mxgraph.aws4.group_security_group;grStroke=0;strokeColor=#147EBA;fillColor=#E6F2F8;verticalAlign=top;align=left;spacingLeft=30;fontColor=#147EBA;dashed=0;" parent="9UDR6D25uus_SUwkZko5-1" vertex="1">
          <mxGeometry x="40" y="280" width="280" height="141" as="geometry" />
        </mxCell>
        <mxCell id="HxhiFmmUvlhv47Gi77z3-1" value="" style="sketch=0;points=[[0,0,0],[0.25,0,0],[0.5,0,0],[0.75,0,0],[1,0,0],[0,1,0],[0.25,1,0],[0.5,1,0],[0.75,1,0],[1,1,0],[0,0.25,0],[0,0.5,0],[0,0.75,0],[1,0.25,0],[1,0.5,0],[1,0.75,0]];outlineConnect=0;fontColor=#232F3E;gradientColor=#F78E04;gradientDirection=north;fillColor=#D05C17;strokeColor=#ffffff;dashed=0;verticalLabelPosition=bottom;verticalAlign=top;align=center;html=1;fontSize=12;fontStyle=0;aspect=fixed;shape=mxgraph.aws4.resourceIcon;resIcon=mxgraph.aws4.ec2;" vertex="1" parent="9UDR6D25uus_SUwkZko5-6">
          <mxGeometry x="110" y="51.5" width="38" height="38" as="geometry" />
        </mxCell>
        <mxCell id="9UDR6D25uus_SUwkZko5-7" value="Private subnet" style="points=[[0,0],[0.25,0],[0.5,0],[0.75,0],[1,0],[1,0.25],[1,0.5],[1,0.75],[1,1],[0.75,1],[0.5,1],[0.25,1],[0,1],[0,0.75],[0,0.5],[0,0.25]];outlineConnect=0;gradientColor=none;html=1;whiteSpace=wrap;fontSize=12;fontStyle=0;container=1;pointerEvents=0;collapsible=0;recursiveResize=0;shape=mxgraph.aws4.group;grIcon=mxgraph.aws4.group_security_group;grStroke=0;strokeColor=#147EBA;fillColor=#E6F2F8;verticalAlign=top;align=left;spacingLeft=30;fontColor=#147EBA;dashed=0;" parent="9UDR6D25uus_SUwkZko5-1" vertex="1">
          <mxGeometry x="40" y="441" width="280" height="141" as="geometry" />
        </mxCell>
        <mxCell id="HxhiFmmUvlhv47Gi77z3-2" value="" style="sketch=0;points=[[0,0,0],[0.25,0,0],[0.5,0,0],[0.75,0,0],[1,0,0],[0,1,0],[0.25,1,0],[0.5,1,0],[0.75,1,0],[1,1,0],[0,0.25,0],[0,0.5,0],[0,0.75,0],[1,0.25,0],[1,0.5,0],[1,0.75,0]];outlineConnect=0;fontColor=#232F3E;gradientColor=#F78E04;gradientDirection=north;fillColor=#D05C17;strokeColor=#ffffff;dashed=0;verticalLabelPosition=bottom;verticalAlign=top;align=center;html=1;fontSize=12;fontStyle=0;aspect=fixed;shape=mxgraph.aws4.resourceIcon;resIcon=mxgraph.aws4.ec2;" vertex="1" parent="9UDR6D25uus_SUwkZko5-7">
          <mxGeometry x="110" y="51.5" width="38" height="38" as="geometry" />
        </mxCell>
        <mxCell id="9UDR6D25uus_SUwkZko5-22" value="Public subnet" style="points=[[0,0],[0.25,0],[0.5,0],[0.75,0],[1,0],[1,0.25],[1,0.5],[1,0.75],[1,1],[0.75,1],[0.5,1],[0.25,1],[0,1],[0,0.75],[0,0.5],[0,0.25]];outlineConnect=0;gradientColor=none;html=1;whiteSpace=wrap;fontSize=12;fontStyle=0;container=1;pointerEvents=0;collapsible=0;recursiveResize=0;shape=mxgraph.aws4.group;grIcon=mxgraph.aws4.group_security_group;grStroke=0;strokeColor=#248814;fillColor=#E9F3E6;verticalAlign=top;align=left;spacingLeft=30;fontColor=#248814;dashed=0;" parent="9UDR6D25uus_SUwkZko5-1" vertex="1">
          <mxGeometry x="360" y="80" width="280" height="160" as="geometry" />
        </mxCell>
        <mxCell id="9UDR6D25uus_SUwkZko5-24" value="Private subnet" style="points=[[0,0],[0.25,0],[0.5,0],[0.75,0],[1,0],[1,0.25],[1,0.5],[1,0.75],[1,1],[0.75,1],[0.5,1],[0.25,1],[0,1],[0,0.75],[0,0.5],[0,0.25]];outlineConnect=0;gradientColor=none;html=1;whiteSpace=wrap;fontSize=12;fontStyle=0;container=1;pointerEvents=0;collapsible=0;recursiveResize=0;shape=mxgraph.aws4.group;grIcon=mxgraph.aws4.group_security_group;grStroke=0;strokeColor=#147EBA;fillColor=#E6F2F8;verticalAlign=top;align=left;spacingLeft=30;fontColor=#147EBA;dashed=0;" parent="9UDR6D25uus_SUwkZko5-1" vertex="1">
          <mxGeometry x="360" y="280" width="280" height="141" as="geometry" />
        </mxCell>
        <mxCell id="HxhiFmmUvlhv47Gi77z3-5" value="" style="sketch=0;points=[[0,0,0],[0.25,0,0],[0.5,0,0],[0.75,0,0],[1,0,0],[0,1,0],[0.25,1,0],[0.5,1,0],[0.75,1,0],[1,1,0],[0,0.25,0],[0,0.5,0],[0,0.75,0],[1,0.25,0],[1,0.5,0],[1,0.75,0]];outlineConnect=0;fontColor=#232F3E;gradientColor=#F78E04;gradientDirection=north;fillColor=#D05C17;strokeColor=#ffffff;dashed=0;verticalLabelPosition=bottom;verticalAlign=top;align=center;html=1;fontSize=12;fontStyle=0;aspect=fixed;shape=mxgraph.aws4.resourceIcon;resIcon=mxgraph.aws4.ec2;" vertex="1" parent="9UDR6D25uus_SUwkZko5-24">
          <mxGeometry x="121" y="51.5" width="38" height="38" as="geometry" />
        </mxCell>
        <mxCell id="9UDR6D25uus_SUwkZko5-25" value="Private subnet" style="points=[[0,0],[0.25,0],[0.5,0],[0.75,0],[1,0],[1,0.25],[1,0.5],[1,0.75],[1,1],[0.75,1],[0.5,1],[0.25,1],[0,1],[0,0.75],[0,0.5],[0,0.25]];outlineConnect=0;gradientColor=none;html=1;whiteSpace=wrap;fontSize=12;fontStyle=0;container=1;pointerEvents=0;collapsible=0;recursiveResize=0;shape=mxgraph.aws4.group;grIcon=mxgraph.aws4.group_security_group;grStroke=0;strokeColor=#147EBA;fillColor=#E6F2F8;verticalAlign=top;align=left;spacingLeft=30;fontColor=#147EBA;dashed=0;" parent="9UDR6D25uus_SUwkZko5-1" vertex="1">
          <mxGeometry x="360" y="441" width="280" height="141" as="geometry" />
        </mxCell>
        <mxCell id="HxhiFmmUvlhv47Gi77z3-6" value="" style="sketch=0;points=[[0,0,0],[0.25,0,0],[0.5,0,0],[0.75,0,0],[1,0,0],[0,1,0],[0.25,1,0],[0.5,1,0],[0.75,1,0],[1,1,0],[0,0.25,0],[0,0.5,0],[0,0.75,0],[1,0.25,0],[1,0.5,0],[1,0.75,0]];outlineConnect=0;fontColor=#232F3E;gradientColor=#F78E04;gradientDirection=north;fillColor=#D05C17;strokeColor=#ffffff;dashed=0;verticalLabelPosition=bottom;verticalAlign=top;align=center;html=1;fontSize=12;fontStyle=0;aspect=fixed;shape=mxgraph.aws4.resourceIcon;resIcon=mxgraph.aws4.ec2;" vertex="1" parent="9UDR6D25uus_SUwkZko5-25">
          <mxGeometry x="121" y="51.5" width="38" height="38" as="geometry" />
        </mxCell>
        <mxCell id="9UDR6D25uus_SUwkZko5-17" value="" style="sketch=0;outlineConnect=0;fontColor=#232F3E;gradientColor=none;fillColor=#4D27AA;strokeColor=none;dashed=0;verticalLabelPosition=bottom;verticalAlign=top;align=center;html=1;fontSize=12;fontStyle=0;aspect=fixed;pointerEvents=1;shape=mxgraph.aws4.internet_gateway;" parent="9UDR6D25uus_SUwkZko5-1" vertex="1">
          <mxGeometry x="320" y="-20" width="40" height="40" as="geometry" />
        </mxCell>
        <mxCell id="HxhiFmmUvlhv47Gi77z3-7" value="" style="sketch=0;outlineConnect=0;fontColor=#232F3E;gradientColor=none;fillColor=#4D27AA;strokeColor=none;dashed=0;verticalLabelPosition=bottom;verticalAlign=top;align=center;html=1;fontSize=12;fontStyle=0;aspect=fixed;pointerEvents=1;shape=mxgraph.aws4.application_load_balancer;" vertex="1" parent="9UDR6D25uus_SUwkZko5-1">
          <mxGeometry x="320" y="140" width="40" height="40" as="geometry" />
        </mxCell>
        <mxCell id="HxhiFmmUvlhv47Gi77z3-8" value="" style="sketch=0;outlineConnect=0;fontColor=#232F3E;gradientColor=none;fillColor=#4D27AA;strokeColor=none;dashed=0;verticalLabelPosition=bottom;verticalAlign=top;align=center;html=1;fontSize=12;fontStyle=0;aspect=fixed;pointerEvents=1;shape=mxgraph.aws4.application_load_balancer;" vertex="1" parent="9UDR6D25uus_SUwkZko5-1">
          <mxGeometry x="320" y="420" width="40" height="40" as="geometry" />
        </mxCell>
        <mxCell id="HxhiFmmUvlhv47Gi77z3-13" value="Private subnet" style="points=[[0,0],[0.25,0],[0.5,0],[0.75,0],[1,0],[1,0.25],[1,0.5],[1,0.75],[1,1],[0.75,1],[0.5,1],[0.25,1],[0,1],[0,0.75],[0,0.5],[0,0.25]];outlineConnect=0;gradientColor=none;html=1;whiteSpace=wrap;fontSize=12;fontStyle=0;container=1;pointerEvents=0;collapsible=0;recursiveResize=0;shape=mxgraph.aws4.group;grIcon=mxgraph.aws4.group_security_group;grStroke=0;strokeColor=#147EBA;fillColor=#E6F2F8;verticalAlign=top;align=left;spacingLeft=30;fontColor=#147EBA;dashed=0;" vertex="1" parent="9UDR6D25uus_SUwkZko5-1">
          <mxGeometry x="40" y="600" width="280" height="141" as="geometry" />
        </mxCell>
        <mxCell id="HxhiFmmUvlhv47Gi77z3-17" value="" style="sketch=0;points=[[0,0,0],[0.25,0,0],[0.5,0,0],[0.75,0,0],[1,0,0],[0,1,0],[0.25,1,0],[0.5,1,0],[0.75,1,0],[1,1,0],[0,0.25,0],[0,0.5,0],[0,0.75,0],[1,0.25,0],[1,0.5,0],[1,0.75,0]];outlineConnect=0;fontColor=#232F3E;gradientColor=#4D72F3;gradientDirection=north;fillColor=#3334B9;strokeColor=#ffffff;dashed=0;verticalLabelPosition=bottom;verticalAlign=top;align=center;html=1;fontSize=12;fontStyle=0;aspect=fixed;shape=mxgraph.aws4.resourceIcon;resIcon=mxgraph.aws4.rds;" vertex="1" parent="HxhiFmmUvlhv47Gi77z3-13">
          <mxGeometry x="110" y="50.5" width="40" height="40" as="geometry" />
        </mxCell>
        <mxCell id="HxhiFmmUvlhv47Gi77z3-21" value="" style="sketch=0;points=[[0,0,0],[0.25,0,0],[0.5,0,0],[0.75,0,0],[1,0,0],[0,1,0],[0.25,1,0],[0.5,1,0],[0.75,1,0],[1,1,0],[0,0.25,0],[0,0.5,0],[0,0.75,0],[1,0.25,0],[1,0.5,0],[1,0.75,0]];outlineConnect=0;fontColor=#232F3E;gradientColor=#4D72F3;gradientDirection=north;fillColor=#3334B9;strokeColor=#ffffff;dashed=0;verticalLabelPosition=bottom;verticalAlign=top;align=center;html=1;fontSize=12;fontStyle=0;aspect=fixed;shape=mxgraph.aws4.resourceIcon;resIcon=mxgraph.aws4.elasticache;" vertex="1" parent="HxhiFmmUvlhv47Gi77z3-13">
          <mxGeometry x="180" y="50.5" width="40" height="40" as="geometry" />
        </mxCell>
        <mxCell id="HxhiFmmUvlhv47Gi77z3-15" value="Private subnet" style="points=[[0,0],[0.25,0],[0.5,0],[0.75,0],[1,0],[1,0.25],[1,0.5],[1,0.75],[1,1],[0.75,1],[0.5,1],[0.25,1],[0,1],[0,0.75],[0,0.5],[0,0.25]];outlineConnect=0;gradientColor=none;html=1;whiteSpace=wrap;fontSize=12;fontStyle=0;container=1;pointerEvents=0;collapsible=0;recursiveResize=0;shape=mxgraph.aws4.group;grIcon=mxgraph.aws4.group_security_group;grStroke=0;strokeColor=#147EBA;fillColor=#E6F2F8;verticalAlign=top;align=left;spacingLeft=30;fontColor=#147EBA;dashed=0;" vertex="1" parent="9UDR6D25uus_SUwkZko5-1">
          <mxGeometry x="360" y="600" width="280" height="141" as="geometry" />
        </mxCell>
        <mxCell id="HxhiFmmUvlhv47Gi77z3-18" value="" style="sketch=0;points=[[0,0,0],[0.25,0,0],[0.5,0,0],[0.75,0,0],[1,0,0],[0,1,0],[0.25,1,0],[0.5,1,0],[0.75,1,0],[1,1,0],[0,0.25,0],[0,0.5,0],[0,0.75,0],[1,0.25,0],[1,0.5,0],[1,0.75,0]];outlineConnect=0;fontColor=#232F3E;gradientColor=#4D72F3;gradientDirection=north;fillColor=#3334B9;strokeColor=#ffffff;dashed=0;verticalLabelPosition=bottom;verticalAlign=top;align=center;html=1;fontSize=12;fontStyle=0;aspect=fixed;shape=mxgraph.aws4.resourceIcon;resIcon=mxgraph.aws4.rds;" vertex="1" parent="HxhiFmmUvlhv47Gi77z3-15">
          <mxGeometry x="121" y="50.5" width="40" height="40" as="geometry" />
        </mxCell>
        <mxCell id="9UDR6D25uus_SUwkZko5-4" value="" style="sketch=0;points=[[0,0,0],[0.25,0,0],[0.5,0,0],[0.75,0,0],[1,0,0],[0,1,0],[0.25,1,0],[0.5,1,0],[0.75,1,0],[1,1,0],[0,0.25,0],[0,0.5,0],[0,0.75,0],[1,0.25,0],[1,0.5,0],[1,0.75,0]];outlineConnect=0;fontColor=#232F3E;gradientColor=#945DF2;gradientDirection=north;fillColor=#5A30B5;strokeColor=#ffffff;dashed=0;verticalLabelPosition=bottom;verticalAlign=top;align=center;html=1;fontSize=12;fontStyle=0;aspect=fixed;shape=mxgraph.aws4.resourceIcon;resIcon=mxgraph.aws4.route_53;" parent="1" vertex="1">
          <mxGeometry x="1000" y="80" width="40" height="40" as="geometry" />
        </mxCell>
        <mxCell id="HxhiFmmUvlhv47Gi77z3-19" value="" style="sketch=0;points=[[0,0,0],[0.25,0,0],[0.5,0,0],[0.75,0,0],[1,0,0],[0,1,0],[0.25,1,0],[0.5,1,0],[0.75,1,0],[1,1,0],[0,0.25,0],[0,0.5,0],[0,0.75,0],[1,0.25,0],[1,0.5,0],[1,0.75,0]];outlineConnect=0;fontColor=#232F3E;gradientColor=#60A337;gradientDirection=north;fillColor=#277116;strokeColor=#ffffff;dashed=0;verticalLabelPosition=bottom;verticalAlign=top;align=center;html=1;fontSize=12;fontStyle=0;aspect=fixed;shape=mxgraph.aws4.resourceIcon;resIcon=mxgraph.aws4.s3;" vertex="1" parent="1">
          <mxGeometry x="1000" y="160" width="39" height="39" as="geometry" />
        </mxCell>
        <mxCell id="HxhiFmmUvlhv47Gi77z3-20" value="" style="sketch=0;points=[[0,0,0],[0.25,0,0],[0.5,0,0],[0.75,0,0],[1,0,0],[0,1,0],[0.25,1,0],[0.5,1,0],[0.75,1,0],[1,1,0],[0,0.25,0],[0,0.5,0],[0,0.75,0],[1,0.25,0],[1,0.5,0],[1,0.75,0]];outlineConnect=0;fontColor=#232F3E;gradientColor=#4D72F3;gradientDirection=north;fillColor=#3334B9;strokeColor=#ffffff;dashed=0;verticalLabelPosition=bottom;verticalAlign=top;align=center;html=1;fontSize=12;fontStyle=0;aspect=fixed;shape=mxgraph.aws4.resourceIcon;resIcon=mxgraph.aws4.codepipeline;" vertex="1" parent="1">
          <mxGeometry x="1000" y="240" width="40" height="40" as="geometry" />
        </mxCell>
      </root>
    </mxGraphModel>
  </diagram>
</mxfile>
